<mxfile host="app.diagrams.net" modified="2023-04-10T05:47:01.323Z" agent="Mozilla/5.0 (Windows NT 10.0; Win64; x64) AppleWebKit/537.36 (KHTML, like Gecko) Chrome/112.0.0.0 Safari/537.36" etag="squl5h4oIR8yDUAeCC9p" version="21.1.5" type="device">
  <diagram name="Página-1" id="qYPaEfJs6qgoT-C3Vg5A">
    <mxGraphModel dx="1240" dy="484" grid="1" gridSize="10" guides="1" tooltips="1" connect="1" arrows="1" fold="1" page="1" pageScale="1" pageWidth="827" pageHeight="1169" math="0" shadow="0">
      <root>
        <mxCell id="0" />
        <mxCell id="1" parent="0" />
        <mxCell id="2SA9ncLkwg0_kmMSRq2s-1" value="HOME" style="rounded=1;fillColor=#10739E;strokeColor=none;shadow=1;gradientColor=none;fontStyle=1;fontColor=#FFFFFF;fontSize=14;" vertex="1" parent="1">
          <mxGeometry x="672" y="205.5" width="200" height="60" as="geometry" />
        </mxCell>
        <mxCell id="2SA9ncLkwg0_kmMSRq2s-2" value="TUTORIAL " style="rounded=1;fillColor=#10739E;strokeColor=none;shadow=1;gradientColor=none;fontStyle=1;fontColor=#FFFFFF;fontSize=14;" vertex="1" parent="1">
          <mxGeometry x="710.5" y="340" width="123" height="60" as="geometry" />
        </mxCell>
        <mxCell id="2SA9ncLkwg0_kmMSRq2s-3" value="" style="edgeStyle=elbowEdgeStyle;elbow=vertical;strokeWidth=4;endArrow=block;endFill=1;fontStyle=1;strokeColor=#23445D;" edge="1" parent="1" source="2SA9ncLkwg0_kmMSRq2s-1" target="2SA9ncLkwg0_kmMSRq2s-2">
          <mxGeometry x="22" y="165.5" width="100" height="100" as="geometry">
            <mxPoint x="22" y="265.5" as="sourcePoint" />
            <mxPoint x="122" y="165.5" as="targetPoint" />
          </mxGeometry>
        </mxCell>
        <mxCell id="2SA9ncLkwg0_kmMSRq2s-4" value="VISTORIAR" style="rounded=1;fillColor=#10739E;strokeColor=none;shadow=1;gradientColor=none;fontStyle=1;fontColor=#FFFFFF;fontSize=14;" vertex="1" parent="1">
          <mxGeometry x="1080" y="480" width="150" height="60" as="geometry" />
        </mxCell>
        <mxCell id="2SA9ncLkwg0_kmMSRq2s-5" value="BOT ASSISTENTE" style="rounded=1;fillColor=#10739E;strokeColor=none;shadow=1;gradientColor=none;fontStyle=1;fontColor=#FFFFFF;fontSize=14;" vertex="1" parent="1">
          <mxGeometry x="520" y="340" width="140" height="60" as="geometry" />
        </mxCell>
        <mxCell id="2SA9ncLkwg0_kmMSRq2s-6" value="" style="edgeStyle=elbowEdgeStyle;elbow=vertical;strokeWidth=4;endArrow=block;endFill=1;fontStyle=1;strokeColor=#23445D;entryX=0.5;entryY=0;entryDx=0;entryDy=0;" edge="1" parent="1" source="2SA9ncLkwg0_kmMSRq2s-1" target="2SA9ncLkwg0_kmMSRq2s-5">
          <mxGeometry x="20" y="25" width="100" height="100" as="geometry">
            <mxPoint x="660" y="250" as="sourcePoint" />
            <mxPoint x="490" y="330" as="targetPoint" />
            <Array as="points">
              <mxPoint x="650" y="290" />
              <mxPoint x="380" y="290" />
              <mxPoint x="560" y="291" />
            </Array>
          </mxGeometry>
        </mxCell>
        <mxCell id="2SA9ncLkwg0_kmMSRq2s-7" value="" style="edgeStyle=elbowEdgeStyle;elbow=vertical;strokeWidth=4;endArrow=block;endFill=1;fontStyle=1;strokeColor=#23445D;entryX=0.5;entryY=0;entryDx=0;entryDy=0;" edge="1" parent="1" target="2SA9ncLkwg0_kmMSRq2s-8">
          <mxGeometry x="20" y="25" width="100" height="100" as="geometry">
            <mxPoint x="770" y="265.5" as="sourcePoint" />
            <mxPoint x="1020" y="330" as="targetPoint" />
            <Array as="points">
              <mxPoint x="868" y="289.5" />
            </Array>
          </mxGeometry>
        </mxCell>
        <mxCell id="2SA9ncLkwg0_kmMSRq2s-8" value="Cadastro usuario " style="rounded=1;fillColor=#10739E;strokeColor=none;shadow=1;gradientColor=none;fontStyle=1;fontColor=#FFFFFF;fontSize=14;" vertex="1" parent="1">
          <mxGeometry x="880" y="340" width="160" height="60" as="geometry" />
        </mxCell>
        <mxCell id="2SA9ncLkwg0_kmMSRq2s-9" value="Incluir patrimônio" style="rounded=1;fillColor=#10739E;strokeColor=none;shadow=1;gradientColor=none;fontStyle=1;fontColor=#FFFFFF;fontSize=14;" vertex="1" parent="1">
          <mxGeometry x="1070" y="340" width="150" height="60" as="geometry" />
        </mxCell>
        <mxCell id="2SA9ncLkwg0_kmMSRq2s-10" value="" style="edgeStyle=elbowEdgeStyle;elbow=vertical;strokeWidth=4;endArrow=block;endFill=1;fontStyle=1;strokeColor=#23445D;entryX=0.514;entryY=-0.021;entryDx=0;entryDy=0;entryPerimeter=0;" edge="1" parent="1" target="2SA9ncLkwg0_kmMSRq2s-9">
          <mxGeometry x="322" y="25" width="100" height="100" as="geometry">
            <mxPoint x="950" y="290" as="sourcePoint" />
            <mxPoint x="1322" y="340" as="targetPoint" />
            <Array as="points">
              <mxPoint x="1170" y="289.5" />
            </Array>
          </mxGeometry>
        </mxCell>
        <mxCell id="2SA9ncLkwg0_kmMSRq2s-11" value="VALIDAÇÃO DE CONTA" style="rounded=1;fillColor=#10739E;strokeColor=none;shadow=1;gradientColor=none;fontStyle=1;fontColor=#FFFFFF;fontSize=14;" vertex="1" parent="1">
          <mxGeometry x="880" y="480" width="180" height="60" as="geometry" />
        </mxCell>
        <mxCell id="2SA9ncLkwg0_kmMSRq2s-12" value="" style="edgeStyle=elbowEdgeStyle;elbow=vertical;strokeWidth=4;endArrow=block;endFill=1;fontStyle=1;strokeColor=#23445D;entryX=0.5;entryY=0;entryDx=0;entryDy=0;exitX=0.563;exitY=1;exitDx=0;exitDy=0;exitPerimeter=0;" edge="1" parent="1" target="2SA9ncLkwg0_kmMSRq2s-11" source="2SA9ncLkwg0_kmMSRq2s-8">
          <mxGeometry x="269.64" y="299.5" width="100" height="100" as="geometry">
            <mxPoint x="1019.64" y="400" as="sourcePoint" />
            <mxPoint x="1019.64" y="450" as="targetPoint" />
            <Array as="points">
              <mxPoint x="1019.64" y="444" />
            </Array>
          </mxGeometry>
        </mxCell>
        <mxCell id="2SA9ncLkwg0_kmMSRq2s-14" value="" style="edgeStyle=elbowEdgeStyle;elbow=vertical;strokeWidth=4;endArrow=block;endFill=1;fontStyle=1;strokeColor=#23445D;entryX=0.451;entryY=-0.015;entryDx=0;entryDy=0;entryPerimeter=0;exitX=0.513;exitY=0.998;exitDx=0;exitDy=0;exitPerimeter=0;" edge="1" parent="1" source="2SA9ncLkwg0_kmMSRq2s-9" target="2SA9ncLkwg0_kmMSRq2s-4">
          <mxGeometry x="569.5" y="299.5" width="100" height="100" as="geometry">
            <mxPoint x="1319.5" y="400" as="sourcePoint" />
            <mxPoint x="1320" y="460" as="targetPoint" />
            <Array as="points">
              <mxPoint x="1230" y="440" />
              <mxPoint x="1150" y="430" />
              <mxPoint x="1319.5" y="444" />
            </Array>
          </mxGeometry>
        </mxCell>
      </root>
    </mxGraphModel>
  </diagram>
</mxfile>
